<svg width="28" height="20" viewBox="0 0 28 20" fill="none" xmlns="http://www.w3.org/2000/svg">
<g clip-path="url(#clip0_5_400)">
<path d="M-2.13477 0H29.6479V20.0534H-2.13477V0Z" fill="#012169"/>
<path d="M-2.13477 0V2.24034L26.0941 20.0534H29.6479V17.813L1.41904 0H-2.13477ZM29.6479 0V2.24034L1.41904 20.0534H-2.13477V17.813L26.0941 0H29.6479Z" fill="white"/>
<path d="M11.109 0V20.0534H16.4041V0H11.109ZM-2.13477 6.68574V13.3676H29.6479V6.68574H-2.13477Z" fill="white"/>
<path d="M-2.13477 8.02136V12.032H29.6479V8.02136H-2.13477ZM12.1674 0V20.0534H15.3457V0H12.1674ZM-2.13477 20.0534L8.45839 13.3676H10.8297L0.2334 20.0534H-2.13477ZM-2.13477 0L8.45839 6.68574H6.09022L-2.13477 1.49617V0ZM16.6865 6.68574L27.2797 0H29.6479L19.0547 6.68574H16.6865ZM29.6479 20.0534L19.0547 13.3676H21.4228L29.6479 18.5571V20.0534Z" fill="#C8102E"/>
</g>
<defs>
<clipPath id="clip0_5_400">
<rect width="28" height="20" fill="white"/>
</clipPath>
</defs>
</svg>
