<svg width="16" height="16" viewBox="0 0 16 16" fill="none" xmlns="http://www.w3.org/2000/svg">
<g clip-path="url(#clip0_5_4909)">
<path d="M-0.00195312 7.53125H3.32261C3.35339 6.35766 3.49689 5.25203 3.7362 4.25H0.970641C0.441328 5.23797 0.0672344 6.35125 -0.00195312 7.53125H-0.00195312Z" fill="#E8E4F9"/>
<path d="M3.32261 8.46875H-0.00195312C0.0672344 9.64875 0.441328 10.762 0.970641 11.75H3.73623C3.49692 10.748 3.35339 9.64234 3.32261 8.46875Z" fill="#E8E4F9"/>
<path d="M7.52848 7.53125V4.25H4.7047C4.44813 5.243 4.29276 6.35869 4.25879 7.53125H7.52848Z" fill="#E8E4F9"/>
<path d="M7.52895 3.3125V0C6.50248 0.286687 5.59323 1.59822 4.99316 3.3125H7.52895Z" fill="#E8E4F9"/>
<path d="M7.52895 16V12.6875H4.99316C5.59323 14.4018 6.50248 15.7133 7.52895 16Z" fill="#E8E4F9"/>
<path d="M8.4668 0V3.3125H11.0026C10.4025 1.59822 9.49327 0.286687 8.4668 0Z" fill="#E8E4F9"/>
<path d="M11.7365 7.53125C11.7025 6.35869 11.5471 5.243 11.2906 4.25H8.4668V7.53125H11.7365Z" fill="#E8E4F9"/>
<path d="M7.52848 8.46875H4.25879C4.29279 9.64137 4.44813 10.757 4.7047 11.75H7.52848V8.46875Z" fill="#E8E4F9"/>
<path d="M11.9989 3.31272H14.4286C13.4583 1.98544 12.0924 0.864125 10.501 0.335938C11.1126 1.05794 11.6241 2.14366 11.9989 3.31272Z" fill="#E8E4F9"/>
<path d="M3.99805 12.6875H1.56836C2.53864 14.0148 3.90461 15.1361 5.49598 15.6643C4.88439 14.9423 4.37286 13.8566 3.99805 12.6875Z" fill="#E8E4F9"/>
<path d="M3.99805 3.31272C4.37283 2.14366 4.88439 1.05794 5.49595 0.335938C3.90461 0.864125 2.53864 1.98544 1.56836 3.31272H3.99805Z" fill="#E8E4F9"/>
<path d="M11.9989 12.6875C11.6241 13.8566 11.1125 14.9423 10.501 15.6643C12.0923 15.1361 13.4583 14.0148 14.4286 12.6875H11.9989Z" fill="#E8E4F9"/>
<path d="M8.4668 8.46875V11.75H11.2906C11.5471 10.757 11.7025 9.64137 11.7365 8.46875H8.4668Z" fill="#E8E4F9"/>
<path d="M12.2607 4.25C12.5 5.25203 12.6436 6.35766 12.6743 7.53125H15.9989C15.9297 6.35125 15.5556 5.23797 15.0263 4.25H12.2607Z" fill="#E8E4F9"/>
<path d="M8.4668 12.6875V16C9.49327 15.7133 10.4025 14.4018 11.0026 12.6875H8.4668Z" fill="#E8E4F9"/>
<path d="M15.9989 8.46875H12.6743C12.6436 9.64234 12.5001 10.748 12.2607 11.75H15.0263C15.5556 10.762 15.9297 9.64875 15.9989 8.46875Z" fill="#E8E4F9"/>
</g>
<defs>
<clipPath id="clip0_5_4909">
<rect width="16" height="16" fill="white" transform="translate(-0.00195312)"/>
</clipPath>
</defs>
</svg>
